<svg xmlns="http://www.w3.org/2000/svg" viewBox="0 0 64 64">
  <defs>
    <linearGradient id="ring" x1="8" y1="8" x2="56" y2="56" gradientUnits="userSpaceOnUse">
      <stop stop-color="#f29a29"/>
      <stop offset=".46" stop-color="#35b789"/>
      <stop offset="1" stop-color="#2878ef"/>
    </linearGradient>
    <linearGradient id="pin" x1="24" y1="16" x2="40" y2="50" gradientUnits="userSpaceOnUse">
      <stop stop-color="#1f73f5"/>
      <stop offset="1" stop-color="#49a4f7"/>
    </linearGradient>
  </defs>
  <path d="M32 5c9 0 16 3.7 21.3 10.1 5.4 6.6 6.4 14.4 2.7 21-3.7 6.4-11.7 9.5-19.2 12-8 2.6-16.1 2.5-22.5-2.9C7.7 39.8 4.7 32.6 6.7 25.5 8.6 18.6 14.9 13 21 9.3 24.5 7.2 28.2 5 32 5Z" fill="#f7fbff" stroke="url(#ring)" stroke-width="3" stroke-dasharray="5 3"/>
  <path d="M32 14c-7 0-11.7 5.3-11.7 11 0 6.8 7 13.5 11.7 21 4.7-7.5 11.7-14.2 11.7-21 0-5.7-4.7-11-11.7-11Z" fill="url(#pin)" stroke="#fff" stroke-width="3"/>
  <circle cx="32" cy="25" r="4" fill="#fff"/>
</svg>
